<svg xmlns="http://www.w3.org/2000/svg" viewBox="0 0 1200 400">
  <!-- Dreamy clouds scattered across the sky - with increased opacity/contrast -->
  <!-- Cloud 1 -->
  <g opacity="0.95">
    <ellipse cx="150" cy="100" rx="60" ry="40" fill="#e6e6ff" />
    <ellipse cx="200" cy="90" rx="70" ry="50" fill="#e6e6ff" />
    <ellipse cx="250" cy="110" rx="55" ry="35" fill="#e6e6ff" />
    <ellipse cx="180" cy="130" rx="65" ry="30" fill="#e6e6ff" />
  </g>
  
  <!-- Cloud 2 -->
  <g opacity="0.85">
    <ellipse cx="400" cy="150" rx="70" ry="45" fill="#e0e0ff" />
    <ellipse cx="450" cy="140" rx="80" ry="55" fill="#e0e0ff" />
    <ellipse cx="500" cy="160" rx="65" ry="40" fill="#e0e0ff" />
    <ellipse cx="430" cy="180" rx="75" ry="35" fill="#e0e0ff" />
  </g>
  
  <!-- Cloud 3 -->
  <g opacity="0.9">
    <ellipse cx="700" cy="80" rx="55" ry="35" fill="#e6e6ff" />
    <ellipse cx="750" cy="70" rx="65" ry="45" fill="#e6e6ff" />
    <ellipse cx="800" cy="90" rx="50" ry="30" fill="#e6e6ff" />
    <ellipse cx="730" cy="110" rx="60" ry="25" fill="#e6e6ff" />
  </g>
  
  <!-- Cloud 4 -->
  <g opacity="0.8">
    <ellipse cx="950" cy="180" rx="65" ry="40" fill="#e0e0ff" />
    <ellipse cx="1000" cy="170" rx="75" ry="50" fill="#e0e0ff" />
    <ellipse cx="1050" cy="190" rx="60" ry="35" fill="#e0e0ff" />
    <ellipse cx="980" cy="210" rx="70" ry="30" fill="#e0e0ff" />
  </g>
  
  <!-- Small cloud clusters -->
  <g opacity="0.7">
    <ellipse cx="250" cy="220" rx="40" ry="25" fill="#e6e6ff" />
    <ellipse cx="280" cy="210" rx="45" ry="30" fill="#e6e6ff" />
    <ellipse cx="310" cy="230" rx="30" ry="20" fill="#e6e6ff" />
  </g>
  
  <g opacity="0.65">
    <ellipse cx="550" cy="250" rx="35" ry="20" fill="#e0e0ff" />
    <ellipse cx="580" cy="240" rx="40" ry="25" fill="#e0e0ff" />
    <ellipse cx="600" cy="260" rx="25" ry="15" fill="#e0e0ff" />
  </g>
  
  <g opacity="0.7">
    <ellipse cx="850" cy="280" rx="45" ry="30" fill="#e6e6ff" />
    <ellipse cx="880" cy="270" rx="50" ry="35" fill="#e6e6ff" />
    <ellipse cx="910" cy="290" rx="35" ry="25" fill="#e6e6ff" />
  </g>
  
  <g opacity="0.6">
    <ellipse cx="100" cy="300" rx="30" ry="15" fill="#e0e0ff" />
    <ellipse cx="120" cy="290" rx="35" ry="20" fill="#e0e0ff" />
    <ellipse cx="140" cy="310" rx="25" ry="10" fill="#e0e0ff" />
  </g>
</svg>