<svg xmlns="http://www.w3.org/2000/svg" viewBox="0 0 1200 300">
  <!-- Mountain range with dreamy layers -->
  <!-- Back mountains - lighter color -->
  <path d="M0 300 L0 180 L80 220 L150 160 L200 180 L280 120 L350 190 L400 150 L500 200 L600 140 L700 190 L800 130 L900 180 L1000 120 L1100 170 L1200 130 L1200 300 Z" 
        fill="#a39adb" opacity="0.6" />
  
  <!-- Middle mountains - medium color -->
  <path d="M0 300 L0 210 L100 190 L200 230 L300 170 L400 210 L450 180 L550 210 L650 160 L750 220 L850 160 L950 210 L1050 170 L1150 220 L1200 200 L1200 300 Z" 
        fill="#8e82d8" opacity="0.7" />
  
  <!-- Front mountains - darkest color -->
  <path d="M0 300 L0 240 L50 210 L100 250 L150 220 L200 260 L250 230 L350 280 L450 230 L550 270 L650 240 L750 260 L850 230 L950 250 L1050 220 L1150 240 L1200 230 L1200 300 Z" 
        fill="#7b68ee" opacity="0.8" />
</svg>